/* XPM */
static char *_661a8c92da648a9de82619d6a86759dwipuJW42mL7nbGvn[] = {
/* columns rows colors chars-per-pixel */
"64 64 163 2 ",
"   c #35013E",
".  c #2F0244",
"X  c #2F014C",
"o  c #330044",
"O  c #31004B",
"+  c #2E0153",
"@  c #2F015A",
"#  c #310054",
"$  c #32005C",
"%  c #38005A",
"&  c #2F0161",
"*  c #340063",
"=  c #390165",
"-  c #350168",
";  c #360168",
":  c #360169",
">  c #370169",
",  c #340268",
"<  c #34006A",
"1  c #35006B",
"2  c #36016A",
"3  c #37016A",
"4  c #37006B",
"5  c #34026A",
"6  c #35016D",
"7  c #37016C",
"8  c #36016E",
"9  c #37016E",
"0  c #36016F",
"q  c #37016F",
"w  c #36006A",
"e  c #3A0069",
"r  c #38006A",
"t  c #38016A",
"y  c #38006B",
"u  c #39006B",
"i  c #3A006B",
"p  c #38006C",
"a  c #39006F",
"s  c #39016F",
"d  c #3A006E",
"f  c #3A006F",
"g  c #3B016F",
"h  c #3B026F",
"j  c #39016C",
"k  c #370172",
"l  c #390071",
"z  c #3B0170",
"x  c #3A0071",
"c  c #3B0071",
"v  c #3B0171",
"b  c #3B0072",
"n  c #3B0073",
"m  c #3D0171",
"M  c #3E0171",
"N  c #3C0072",
"B  c #3C0073",
"V  c #3D0073",
"C  c #3E0172",
"Z  c #3F0273",
"A  c #3C0074",
"S  c #3D0174",
"D  c #3C0075",
"F  c #3D0075",
"G  c #3E0074",
"H  c #3F0174",
"J  c #3F0075",
"K  c #3E0175",
"L  c #3F0175",
"P  c #3E0076",
"I  c #3E0176",
"U  c #3F0077",
"Y  c #3C0276",
"T  c #3F0276",
"R  c #3C0173",
"E  c #3D0179",
"W  c #3F0078",
"Q  c #3E0178",
"!  c #3F0178",
"~  c #3F0079",
"^  c #3F017A",
"/  c #3F0179",
"(  c #410273",
")  c #410175",
"_  c #410076",
"`  c #410176",
"'  c #400077",
"]  c #410177",
"[  c #420076",
"{  c #420177",
"}  c #410276",
"|  c #400277",
" . c #410176",
".. c #400078",
"X. c #410078",
"o. c #410178",
"O. c #400079",
"+. c #410079",
"@. c #420078",
"#. c #420079",
"$. c #430079",
"%. c #430279",
"&. c #40007A",
"*. c #41007A",
"=. c #40017A",
"-. c #41007B",
";. c #41017B",
":. c #43017A",
">. c #43007B",
",. c #42017B",
"<. c #43017B",
"1. c #45017A",
"2. c #44007B",
"3. c #44017B",
"4. c #45017B",
"5. c #46007B",
"6. c #41017C",
"7. c #42017C",
"8. c #43017C",
"9. c #43007D",
"0. c #44017C",
"q. c #44007D",
"w. c #45007D",
"e. c #45017D",
"r. c #46007C",
"t. c #46007D",
"y. c #46017D",
"u. c #45007F",
"i. c #47007E",
"p. c #46007F",
"a. c #47007F",
"s. c #44017B",
"d. c #48007D",
"f. c #48007E",
"g. c #48007F",
"h. c #48017F",
"j. c #49027E",
"k. c #470180",
"l. c #480080",
"z. c #480081",
"x. c #490081",
"c. c #480082",
"v. c #4F0487",
"b. c #4C0183",
"n. c #4E0189",
"m. c #520287",
"M. c #500485",
"N. c #510286",
"B. c #510388",
"V. c #520289",
"C. c #530289",
"Z. c #540289",
"A. c #55018B",
"S. c #54028A",
"D. c #55028A",
"F. c #55018C",
"G. c #54028A",
"H. c #5A038D",
"J. c #5A088B",
"K. c #5C0391",
"L. c #60058F",
"P. c #630394",
"I. c #660298",
/* pixels */
"*.*.*.*.v.F.C.C.x.0.x.0.G a x a g t 9 5 * $ * * * * * 5 a x a a 5 t t t O . O O $ $ @ * G 9.*.*.G *.^ G $ + # + o o o o O o O O ",
"*.*.*.0.C.D.C.C.x.d.x.0.V a x a t 5 9 5 * * & * * * * * a x a a a t t t # O O + $ @ + $ ^ ^ *.*.^ G ^ G $ + $ + o O o O O O O o ",
"*.*.*.3.m.F.D.D.c.x.x.0.x a x a t 5 9 5 * * * & * 5 5 5 a x a a t t t t # X . O # $ @ $ G 9.*.*.G { ^ G $ + # + O o o o o O O o ",
"9.*.*.9.v.C.C.M.x.0.x.0.V V V g 5 5 9 9 $ $ @ * * * * * 9 9 9 x a t i t # X O + $ $ @ $ G *.^ G G V V x $ + # # O o O o O O O O ",
"9.9.0.0.3.3.3.*.3.*.3.*.*.*.*.{ @ @ # # o o o o * * * * 5 < 5 5 T G G T $ $ % $ $ * @ * x G G a $ # $ $ O X # # # # $ $ # # # # ",
"0.3.5.3.{ { { *.*.*.*.{ 3.3.9.{ + + # # o     o $ * * * * 5 * 5 ^ ^ ^ ^ $ $ * $ $ $ & $ Y Y G V @ # @ # . O X O $ $ $ + # # + $ ",
"x.d.d.d.5.3.3.{ *.{ { { 0.0.0.9.$ + $ # o   o o $ % * * * * 5 5 G *.T k $ @ $ $ @ $ @ $ x V V a $ # # + # X O X # $ @ @ + # # # ",
"3.3.5.3.{ { { { *.{ { *.{ T *.{ % # # O o o o O * * * * 5 5 5 5 { *.9.T , * & * * * $ * V G { V % $ $ $ X # . # $ # $ $ # # $ # ",
"$ $ $ * 5 9 t g *.*.3.{ % # % % o o o O % % % % j.k.c.k.T v v T M.C.C.v.G V V x a a t g x.m.m.c.k 7 v 9 # O O O o o o O % * * * ",
"$ # $ # = 9 = t G *.*.} O O X . o o o o $ * * t b.n.v.v.T v k Z B.D.D.M.^ Y G Y V g t ( m.C.D.m.^ v v 7 O O X O   o   o % 9 5 * ",
"$ @ @ $ t 9 t a ^ *.0.G # X # O o o o o $ * * * c.v.v.c.v k v Y C.D.F.B.*.V G G g a x V m.D.D.C.T v a 9 # . O O o o   o * 9 * 5 ",
"$ # # % 5 5 5 a G { { V # # O O O o o O , * * t x.v.b.b.Z k 9 Z N.m.m.M.{ V Y V t t a g x.N.m.M.^ T T x % + O O o     o % * * * ",
"o o o O * 5 * * % # # # o o X O $ % @ * v.B.M.m.c.v.x.d.% # # # $ $ * $ $ $ $ $ O O + # a x v k M.J.F.B.g a t = o   o o o o o O ",
"o O o O * * * 5 # # O # o O . O * * & 5 M.F.D.D.b.x.v.d.$ X O + @ @ @ @ $ @ $ + O O . + 5 a 7 x B.H.K.J.g a V a O o o o o   o o ",
"o o o o * t , , # # # O o o o o % * $ = M.F.D.D.b.v.b.d.$ + # + $ $ @ @ @ $ $ $ O O . O a x x T G.K.K.v.V t V g o o o o o o o   ",
"O o o O % * , $ # O O O X O O O * * * i M.D.D.B.5.1.5.3.# # # + # # $ $ $ $ $ $ O O O X = t t a B.F.F.v.{ V V ( O o O o o o o o ",
"O # # O @ # + # . O . # $ % % * j.c.x.j.x.d.x.0.% O % % o o o o O O o # $ * * $ O o O O O O O O 7 h h Z j.v.b.k.e t t = O o o o ",
"# # # # # O # # . o O O * 5 * * c.v.m.b.0.3.d.3.# O O O . . X . o . o O $ * * $ O O o O O O o O , t = 7 c.c.v.c.( e Z t O O O O ",
"# + + # # # # + o o o O * * @ * c.M.m.m.d.d.x.3.# O # O o . o o . . . X $ * * $ O o O o o O O O t a t g b.v.v.c.Z , v = o o o o ",
"# # # # + # # O O O O O * * * i j.M.v.j.*.*.3.( % O O O X O . X . O O . $ * * % O # O O O o o O = t = g j.v.c.c.T Z Z t # O O O ",
"v v V a * * $ * * t * = M.B.G.M.j.7.4.} % # $ # o o o o + $ $ $ $ $ $ $ 7 7 a x g v 7 t O o o o O O # # t a a V H.H.H.D.( i i e ",
"G G G G * * $ * 5 a 9 9 H.G.H.G.%.%.%.Z # X # O o o o o $ @ @ $ $ * $ * t a g g G x T h O o o o X O O + 5 * * a H.L.P.H.( ( V V ",
"G Y G x * $ * * 5 5 5 t G.G.F.G.j.^ 4.} # + # O o o o o # @ @ $ $ $ @ $ t g a x v x V t O o o o O + O # 5 5 5 g H.L.P.H.( g g g ",
"^ G ^ G * * @ * 5 a 5 t H.B.F.B.{ T } ( + X # O o o o o $ $ % $ % * * * g h 7 x G G G h # o O O X O O + * * * a H.H.H.D.{ V V ( ",
"x.d.b.d.= * * , G ^ ^ ^ c.c.v.k.# # # O o   o o # # # % V V G V *.0.0.3.G V x T b.m.m.b.V t t t O O O o O O O # ( *.{ *.3.0.d.0.",
"x.b.b.x.* * * * } 9.G *.k.c.c.k.# . O O o o   o # # # $ V V G ^ 0.d.0.0.G x v G b.N.m.b.V x x a O o o O O o O # V *.V { 0.0.x.d.",
"x.b.b.d.5 * * * G *.^ *.k.c.c.d.% X O O o   o o # # # $ V { ^ ^ 0.d.0.0.G x v T m.m.B.b.x a a t o o o o o O o O V { { *.0.0.0.d.",
"d.x.x.0.* % * = G ^ G G j.k.c.3.# X O O o o o o # $ # # h V V G 0.x.x.d.G x Y G b.m.M.b.{ g V g # O O O o O o # i { V V 3.3.9.0.",
"t = t = O O O O * * * a 9 t a t # # # # # $ $ $ $ $ $ $ * * $ t J.L.L.L.7.%.*.^ *.^ T 3.F.K.K.F.( t g i O O . O # $ # $ * * * % ",
"5 5 5 = O o o O * 5 * * * * * * + # # $ @ @ @ @ $ * $ * @ $ # * L.I.I.P.7.*.3.} T k v { K.K.K.H.{ g G V # X X X # X + + % * * * ",
"* * 5 * O o o O * * * * 5 5 5 * # # # # $ $ $ $ % * $ $ $ $ @ = L.I.I.L.d.*.0.3.T V k *.J.K.K.H.} V G x O . O O # # + + * $ & * ",
"t 5 t * O O o O * * * * 5 * t * $ # + # # $ @ # $ $ $ $ $ $ @ * J.L.L.J.3.{ { { G } ^ 3.H.K.K.J.G a T 7 # . O O X + + + * * * * ",
"9 5 9 9 # # O # $ * $ * * 5 * * $ + # + + # O + X # X # O # + + = = = * , * * i b.v.v.N.b.v.v.k.* & * * O O O O + + X + T G T G ",
"9 9 9 9 # + # + $ @ * * * * 5 * # # + # # # + # O X O O O # # # $ $ $ * $ = * = x.C.v.b.x.x.b.j., @ $ $ + O o X # + + # G *.G *.",
"5 < 9 5 # # + + $ & $ * * * * * $ # $ + + # # + X O O + # # # % $ , * * * = * , v.n.n.v.c.n.n.c.* @ * $ O . O X X # + $ G { ^ T ",
"x x x x # + + + * * % * t t i i $ # # # # O # X O X O O O # O # $ $ $ $ * * * = j.c.x.x.c.c.x.k., * * * + O O O # # # $ ^ 9.9.*.",
"c.x.b.d.* $ * * x V x ^ x.b.j.j.# # # + O o o O O X O X X . O O O O O + * 5 * 5 g g g x { *.*.*.G g v k * $ * * t a * = v.v.v.n.",
"v.v.b.N.= @ * * x G V V b.b.m.j.$ O O # o o o o + O O O O O O O O O O O % * * = t t t t G *.*.*.G V G x * $ * * * a t t v.C.m.C.",
"m.m.m.b.* * * * x G V T v.b.m.j.# + + + o o o o O O O X X . X O o o o O = * * * 9 5 * a { *.*.{ V V V x * * $ * t 9 t V v.D.C.C.",
"d.b.b.d.* * * * v Z 7 v m.m.m.j.* # % $ o O O O O O O O O O X X O O O + % * * * 9 a 5 a { 3.3.3.G G G V $ * * $ * 5 5 t b.m.b.v.",
"5 = 5 5 % # # # $ $ # * J.B.D.m.b.j.v.d.% X # O o o   o # $ # $ * * * @ $ $ # $ * 5 * a M.D.m.M.%.^ *.G # # O # # $ $ @ t g t i ",
"* * * * O # O O # $ # $ B.F.D.G.C.D.C.N.# + # #   o   o + $ $ $ $ * * * $ $ $ $ * t t t B.F.D.B.*.{ %.{ % O # O # # + # * 5 5 * ",
"* * * * # # # # $ $ $ $ m.D.D.B.m.v.n.b.# + X O       o $ $ $ $ @ * $ $ $ # $ $ * 5 * a C.D.D.D.j.{ 3.{ # # # % + X + + = 5 5 t ",
"* 5 * 5 # # # # # # $ $ b.M.M.m.C.m.n.v.$ # $ $ . o o o $ + + $ $ * * * $ $ $ % t t t g B.C.D.B.} ( V ( # X O # # + + + * 9 5 5 ",
"* * * * # $ # # O o O O = $ $ , d.b.v.x.M.M.M.j.% $ % $ $ @ $ $ * 5 5 5 * 9 t g M.H.H.B.b.d.x.0.% # # # o o   o % * * * g a a x ",
"5 * * * $ # $ $ O o o o # $ # $ x.v.v.v.B.B.G.M.* $ @ * $ @ $ $ * * * * t a t g G.H.D.H.x.d.x.3.O X + . o     o * * * t g V x V ",
"* * * * @ $ $ + O o o o $ $ # $ b.v.M.v.C.C.B.M.* $ @ @ $ @ $ $ * * * * 5 t * a G.H.H.D.x.x.x.3.# O + . o     o * * * * 7 x x Z ",
"5 * * * % $ % % O O O O # $ # $ 4.x.j.c.n.D.B.M.t * * * $ * $ $ 5 * 5 5 g ( a ( G.F.H.G.5.3.0.{ # O # O O o o O = t 5 t Z T v x ",
"V x V x m.G.G.M.$ % $ $ O O O O $ % $ * J.M.G.D.j.x.c.j.a * * 5 5 5 5 , B.G.B.G.C.n.v.b.* $ $ % O o o O * * $ = M.J.D.J.3.*.3.3.",
"V V x G D.H.H.G., * * * o o o O + # X $ M.J.G.G.C.m.m.v.x 9 9 5 5 9 5 9 F.H.K.K.C.n.n.b.$ + @ + o o o o = t , h G.H.H.D.d.3.3.3.",
"x Y G ^ D.H.H.m.* @ $ $ O O O O # # # % M.G.H.G.v.v.v.x.a * 5 5 5 5 9 9 H.H.H.F.n.n.n.b.$ # # # o   o o * , , h J.K.H.H.0.*.3.3.",
"G G G G D.K.H.M.= * , % O O O O O # # % j.B.M.M.b.b.v.d.g 5 a 5 5 9 , v F.F.J.F.j.x.v.k.% # $ # o O o O = t t ( M.D.D.F.0.{ { { ",
"5 9 t a m.C.D.D.J.H.K.B.% $ # # o o o o % $ % * d.b.b.x.G x k Z V V g { c.n.c.c.% $ $ # O + O # * t * i H.K.K.J.M.c.x.x.x 5 t t ",
"5 * * t v.C.m.m.K.K.K.H.% $ @ % o o   o @ $ $ $ d.d.j.x.*.x G V V V V V k.x.x.j.$ X + + X O . # * 9 5 9 K.P.I.L.b.k.d.3.5 * 5 * ",
"t t 5 i m.D.m.D.K.K.K.H.$ @ @ $ o o   o + $ @ $ d.b.x.c.G V x T T x x G k.v.v.j.$ # # # O X O + * 5 5 9 K.I.P.K.b.x.v.x.i 5 5 5 ",
"5 * 5 t d.m.b.m.H.K.K.H.* * % $ o o o o # # # % 3.d.j.4.T x v 7 a a x V j.4.k.%.# X # O # # X # a 7 9 G J.P.L.K.j.4.5.3.t * * * ",
"5 * * 5 t 7 t V G.K.F.K.c.c.v.j.# X # O O O O O * * 5 * * * $ * % * & * * $ * @ o   o o % = * = J.L.K.J.c.9.0.%.* $ $ $ , & * * ",
"5 t 5 5 t * , , v.K.H.K.b.v.v.b.# + + + o O o O % $ * & * $ $ & @ & * & + + @ +       o = t * a K.P.P.K.j.G *.G $ # $ $ @ * $ * ",
"= 5 * t t 5 * a F.K.F.F.v.v.n.c.# . # O O o o O & * & @ @ $ $ $ * * & @ + @ @ % o o   o % 5 * 9 J.P.P.P.9.^ 9.G $ + $ $ * * * & ",
"5 * 5 * t a , 9 B.K.F.G.v.b.b.j.% # # # O o O O $ * * * * * * $ * $ * $ $ @ $ # o o o O * 9 9 x J.L.K.K.} G ( Z % @ # # $ * @ * ",
"% $ $ * 4.c.j.j.0.0.0.3.Y G { V * t a = * @ * $ 9 a a x x x x x a t t * * * * $ $ $ $ * j.c.c.d.j.%.7.} % + # # X X . X $ $ @ $ ",
"$ # @ $ 0.n.b.c.*.G *.G x a x x a t a t * * $ * Y Y Y G Y ^ Y Y x a a t * $ * * * $ * * v.m.m.v.T k T k + X # O . X O O # $ $ @ ",
"# @ $ $ j.c.x.x.9.*.*.*.V V V Y a t a t * * * * G x Y Y Y x V V a 9 a 5 * * * $ * * % * b.v.c.b.G Y T Y # # O # # . O X # $ $ @ ",
"$ $ # $ k.b.x.x.*.*.*.*.V x V x t t a 5 * $ * * x Y G x G x Y x x t 9 5 * $ * * * * $ * b.b.v.v.G G G x # O # # + O X . $ $ $ $ "
};
