/* XPM */
static char *a59e07fd7dda44ecda6cdc540e8f2098t6UFgdEZ6fhYsY0e[] = {
/* columns rows colors chars-per-pixel */
"64 64 132 2 ",
"   c #020202",
".  c #080706",
"X  c #0B0806",
"o  c #070708",
"O  c #0A0A09",
"+  c #100D0B",
"@  c #141210",
"#  c #1A1817",
"$  c #1D1E1E",
"%  c #222120",
"&  c #282624",
"*  c #846956",
"=  c #886B56",
"-  c #876D5A",
";  c #8A6E5A",
":  c #8E725E",
">  c #90735F",
",  c #8F7562",
"<  c #927562",
"1  c #947865",
"2  c #957C6A",
"3  c #9A7E6B",
"4  c #A17F66",
"5  c #A07F6D",
"6  c #9D826E",
"7  c #998271",
"8  c #A38166",
"9  c #A58268",
"0  c #A8856B",
"q  c #A9886F",
"w  c #A28671",
"e  c #AD8770",
"r  c #AB8A71",
"t  c #AC8F79",
"y  c #B08E76",
"u  c #AD907B",
"i  c #B09077",
"p  c #B4957D",
"a  c #AF9480",
"s  c #B39680",
"d  c #B79A85",
"f  c #B89B84",
"g  c #B89D89",
"h  c #BDA28D",
"j  c #BFA693",
"k  c #BFBDBB",
"l  c #D39696",
"z  c #D19896",
"x  c #D49B9B",
"c  c #DA9D9D",
"v  c #C0A794",
"b  c #DBA2A2",
"n  c #EEABA9",
"m  c #F2ADAC",
"M  c #FEB5B5",
"N  c #FFB7B8",
"B  c #FFB8B8",
"V  c #C3C1BF",
"C  c #C6C3C1",
"Z  c #C7C4C2",
"A  c #C7C5C3",
"S  c #C7C7C6",
"D  c gray78",
"F  c #C6C6C6",
"G  c #C4C4C4",
"H  c #C7C8C8",
"J  c #C7C8C9",
"K  c #C7C8C9",
"L  c #C9C9C8",
"P  c #C8C8C9",
"I  c gray79",
"U  c #C9C9CA",
"Y  c #C9CACB",
"T  c #CACACA",
"R  c #CACACB",
"E  c #CACBCB",
"W  c #CECBC9",
"Q  c #D2CFCD",
"!  c #D0CECC",
"~  c #D3D0CE",
"^  c #D3D1CF",
"/  c #D5D1CF",
"(  c gray83",
")  c #D5D5D5",
"_  c #D6D6D5",
"`  c #D5D6D6",
"'  c gray84",
"]  c #D7D7D7",
"[  c #D6D6D6",
"{  c #D9D8D7",
"}  c #D7D7D8",
"|  c #D7D8D8",
" . c #D7D8D9",
".. c #DADADA",
"X. c gray86",
"o. c #DCDCDD",
"O. c #DCDCDC",
"+. c #DFDFE0",
"@. c #EEE7E2",
"#. c #EBE8E6",
"$. c #F3EFEB",
"%. c #F4EFEC",
"&. c #F1F0EF",
"*. c #F4F1EE",
"=. c #F5F1EE",
"-. c #F6F2EF",
";. c gray95",
":. c #F3F3F3",
">. c #F6F2F0",
",. c #F6F3F0",
"<. c #F7F3F1",
"1. c #F7F4F1",
"2. c #F7F4F2",
"3. c #F3F3F4",
"4. c #F4F5F6",
"5. c #F9F6F5",
"6. c #FAF6F4",
"7. c #FAF8F7",
"8. c #FBFAF9",
"9. c #FEFBF8",
"0. c #FCFBFA",
"q. c #FCFBFB",
"w. c #FDFCFB",
"e. c #FDFCFC",
"r. c #FDFDFC",
"t. c #FDFDFD",
"y. c #FEFDFD",
"u. c #FEFEFD",
"i. c #FEFEFE",
"p. c #FFFEFE",
"a. c #FFFFFE",
"s. c white",
/* pixels */
"' ' ' ' ' ' ' ' ' ' ' ' ' ' ' ' ' ' ' ' ` _ R L L L L R L L R L K K D D D D D D D D D D D D D D D D D D D D D D D D D D D D D P ",
"' ' ' ' ' ' ' ' ' ' ' ' ' ' ' ' ' ' ' ' ' _ L L L R L L P R P L F K D D D D D D D D D D D D D D D D D D D D D D D D D D D D D P ",
"' ' ' ' ' ' ' ' ' ' ' ' ' ' ' ' ' ' ' ' ' _ H L L P R K L L L P F D D D D D D D D D D D D D D D D D D D D D D D D D D D D D D L ",
"' ' ' ' ' ' ' ' ' ' ' ' ' ' ' ' ' ' ' ' ' _ L L L R L L P R L R P F D D D D D D D D D D D D D D D D D D D D D D D D D D D P P L ",
"' ' ' ' ' ' ' ' ' ' ' ' ' ' ' ' ' ' ' ' ` ( L L R P L L R P L L D D D D D D D D D D D D D D D D D D D D D D D D D D D D D D D P ",
"' ' ' ' ' ' ' ' ' ' ' ' ' ' ' ' { ` ' ' ` ( E E L L P R L L P R D D D D D D D D D D D D D D D D D D D D D D D D D D D D D D D P ",
"' ' ' ' ' ' ' ' ' ' ' ' ' ' ' ' ` ` ` ` ` ` L L R L R L R L R L D D D D D D D D D D D D D D D D D D D D D D D D D D D D D D D L ",
"' ' ' ' ' ' ' ' ' ' ' ' ' ' ' ' { ` ` ` ` ( E L P L P L P L P L D D D D D D D D D D D D D D D D D D D D D D D D D D D D D P D L ",
"' ' ' } ' ' _ _ ' ' ' ' ' ' ' ' _ _ _ _ _ ( L L L E L L S E H E D F P F V W W A D D D D K F P D H F J F F F K K D D K K F F F L ",
"} } } { } { { _ } } } | } } } } _ { { { { ` E E E E E E E E E E P K K P W Q Z W P P P P P P K F H H J J P K K K P P P R P P P R ",
"Q / / Q Q Q Q Q ~ ~ ~ ~ ~ Q ~ ~ / / / / ^ ! V A G V V G V V V S C C C C V V V V Z Z C C C C C C C C Z C C C C C C C C C C C C C ",
"s p p s s s p p p s s f f f f f h p p v f f p d s p p p h p p p f f s f f f f f s s f g g g g g g g g g g d u a u u a u a a u s ",
"p t p y p y p p p i p p p p p p p p p p p p i p p u p p p i p p p p f p f p p p p p p f f f d d f d d d d d t t t t t t t u t a ",
"p p p p y p p i i p p p p p p f p p p p p p p p p p p u p u p u p p p p p f p f p f f f g f d g d f d g d d u u u u t u u t t a ",
"p i i p i p p p p p y p p f p f p p p p p p p u i p p u p p p u f p f f f p f p p p p f f f f d d g d d d d u u u t u u t u t a ",
"i p p i p p p i p i i v p p p p h p p p p h p p p p p p p u p p p p p p p p p p p f f f f g g f d d d g d d u t u u t u u u t s ",
"p p t p p i p p u p i p p p f p p f f p p p p p p p u p u p p p f p f p v p p p f p f d d g d g d d g d d d u u u t u u t u t a ",
"p t p p i p p t p i p p p f p p f p p p p f p p u p p p p p u p p p p p i p f p p s s d d d d d g d g d d d u t u u t u u u t a ",
"p i p i p i p i p p p p p p f p p f p f f p p p p p p p p p p p p f f p p p p f p f s d g d d d g d d d d d t t u t u u u u t a ",
"t p i p i p t p i p u f f p p f f p f p p p p i u p i p i p p u p p p f p f p p p p f d d g g d g d g g g s t t t t t t t u t a ",
"f p p p p s p f f p p p p p p p p p p p p p y p p p i u p p p p p f p p p p s f p f p f f s s d s d f s f s p p u p p p p u p s ",
"9 6 q w 9 7 7 9 9 6 w h v v g v g v h h v h p p p i p p i p i i p p p p p p p p p p p v v v v j j j j v v g 6 6 6 3 6 6 3 7 6 7 ",
"O O O O O O + O O X % &.9.6.t.t.9.r.r.9.9.$.y y i y y i i i i i e e y e r r r q e 0 s 9.t.t.t.t.q.t.t.r.t....   o o       o o @ ",
"O O o O O . . O o   $ 1.t.r.t.t.t.r.t.r.r.1.y y y y i y i i i i r e e e q r q r r q s e.t.t.t.t.t.t.t.t.t.o.                  O ",
"O O o o o O O o O   $ ;.t.t.t.t.t.t.t.t.t.-.p y y y y i i y y q r r q r q q q r r 9 s q.t.t.t.t.t.t.t.t.t...                  O ",
"O O o O O o . . O o $ ;.t.t.t.t.t.t.t.t.t.-.p r y i i y y y i y r q r q q r r q r q s q.t.t.t.t.t.t.t.t.t...                  O ",
"O o o O . o . . O   $ 4.t.t.t.t.t.t.t.t.t.-.i y y i y y y i i i q r q r q r q r r 9 s q.t.t.t.t.t.t.t.t.t.o.                  + ",
"O o o o O o . . O   $ 4.t.t.t.t.t.t.t.t.t.-.p y i y y i i y i i r q r q r q r q r q s q.t.t.t.t.t.t.t.t.t...                  + ",
"O o o . . O O o O   $ :.t.t.t.t.t.t.t.t.t.2.i y y t i y y i y q r q r q q q r q r q p q.t.t.t.t.t.t.t.t.t.X.o                 O ",
"O o o o O . O O O   $ ;.t.t.t.t.t.t.t.t.t.-.p r i y y i y y y y q r q q r r q r r 9 s 8.t.t.t.t.t.t.t.t.t...                  + ",
"o o   o o o   o O   $ 4.t.t.t.t.t.t.t.t.t.2.p y i y y i i i i i r q q r r q r q r q s t.t.t.t.t.t.t.t.t.t.o.                  O ",
"@ @ @ @ @ @ @ @ @ + & #.7.1.2.2.2.2.2.2.7.@.i y y y r i y r y y r q q q q q q q q q p -.2.2.1.1.2.,.1.,.9./ + O O X + O O O O # ",
"; = - = - = ; = - - : r t t t t i y y y y y 0 0 0 0 0 0 0 0 0 0 9 9 8 9 9 8 9 9 9 9 9 0 0 q 0 0 q 0 q q 0 9 = = = * = * * * * , ",
"< : < < < > < < > : , q q q q q 0 q 0 q 0 0 0 0 0 0 0 9 0 0 0 0 9 9 9 9 9 9 9 9 9 9 9 8 8 9 8 8 9 8 9 8 9 4 ; ; ; ; ; ; ; ; ; , ",
": : : : ; , , ; : : : r q q r r r r r q r q 0 0 9 0 0 0 0 0 0 0 9 9 9 9 9 8 8 9 9 9 9 9 9 9 9 9 9 9 9 9 9 4 ; ; ; ; ; ; ; ; = , ",
": : < ; < ; : : : : < q q q q r q q r r r 0 0 0 0 0 9 0 0 0 0 0 9 9 9 9 9 9 9 9 8 9 9 8 9 9 9 9 9 8 9 9 9 4 ; ; ; ; ; ; ; ; = , ",
": : : : : : : : : : , q r q q q r r q r 0 r 0 0 0 0 0 0 e 9 0 0 9 9 8 9 9 9 9 9 9 9 8 9 8 9 9 8 9 9 9 9 9 4 ; ; - ; ; ; ; ; - , ",
": : : : : : : : : : : q q q r q r q r q y e 0 0 0 0 0 0 9 0 0 0 8 9 9 9 9 8 8 9 9 9 9 9 9 9 9 9 9 9 9 9 9 4 ; ; ; ; ; ; ; ; ; , ",
"; < : , : > : : , ; , q q r q r r q q r 0 0 0 0 0 0 0 8 9 0 0 0 9 9 9 9 9 9 9 9 9 8 9 9 9 9 9 9 8 9 9 8 9 4 ; ; ; ; ; ; ; ; = , ",
"< ; , ; : : : : : ; < q q r q q q q r q e 0 0 0 8 0 0 0 0 0 9 0 9 9 8 9 9 8 9 9 9 9 8 9 9 8 9 9 9 9 9 9 9 4 ; ; ; ; ; - ; ; ; , ",
": , , : , : , : : : : q r r q r q r q q q q q 0 0 0 0 0 0 0 0 0 9 8 9 9 9 9 9 9 9 9 9 9 9 9 9 9 9 9 9 9 8 4 = : ; ; ; ; : - ; , ",
"; ; ; ; ; ; ; ; ; : : q r q r r r r q q r q 9 0 0 0 4 9 0 0 9 9 8 8 8 8 8 9 8 8 8 8 8 9 9 9 9 9 0 8 9 8 9 6 = = = = = = = = = : ",
"3 2 3 3 2 2 3 3 2 3 6 0 q q q q q 0 0 w 0 0 r y e e y y e e y e e e e e 0 e y q e e e 8 8 8 8 8 4 8 8 8 8 8 2 2 2 2 1 2 2 2 2 2 ",
"( ( ( ( ( ( ( ( / _ W 2 1 1 1 < 6 : 6 > > 6 M M M M M M M M M M M M M M M M M M M M n > : : : : : > : : ; 6 { X.{ ..| ..} ....X.",
"' } ' } ` } } ' ` ..! 2 1 > 1 1 1 1 1 1 > 6 M B M M N M M M N M M M M M B M M M M M m > : : : : : : : : ; 7 X.X.O.O.O.+.o.o.o.o.",
"' ' ' ' ` } ' ' _ ` ! 2 1 1 1 1 1 1 1 1 > 0 M M M M M M M M M M M M M M M M M M M M m > : : : : : : : > ; 7 X.X.X.O.X.O.o.X.X.o.",
"' ' ' ' ' ' ' ' _ { ~ 1 > 1 1 1 1 1 1 1 > 6 M M M M M M M N M M M M M M M M M B M B m > : : : : : : : > ; 7 X.O.O.O.X.X.o.X.o.+.",
"' ' ' ' ' ' ' ' _ { ~ 6 1 1 1 1 1 > 1 1 > 6 M M N M M M M M M M M M M M M M M M M B m > : : : : : : : : : 6 X.O.X.O.X.+.X.o.X.o.",
"' ' ' ' ' ' ' ' ' } Q 2 1 1 1 1 1 1 1 1 < 5 M M M M M M M M M M M N M M M M M M M M m < ; , : : : : : > ; 7 X.X.o.X.O.O.X.O.X.+.",
"' ' ' ' ' ' ' ' ' | W 2 < 1 1 1 1 < 1 1 < 5 M M M M M M M M M N M M M M M M M M M M m : : : : : : > : : ; 7 X.o.X.o.X.X.O.O.X.+.",
"' ' ' ' ' ' ' ' ' } W 3 < 1 1 1 1 1 1 1 < 5 M M M M M M M N M M M M M M M M M M M B m : : : : : : : : < ; 6 X.X.o.X.o.X.X.+.X.+.",
"' ' ' ' ' ' ' ( ' } W 3 1 1 1 1 1 1 1 1 < 5 M M M M M M M M M M M M M M M M M M M B m , : : : : : : : : ; 7 X.o.X.o.X.+.X.X.X.X.",
"| ' ' ' ' ' ' } ' { ! 2 < 1 1 1 1 1 1 1 < 5 M M N M M M M M N N B M M M M M M M M M m : : : : : : : : < ; 6 o.o.O.X.X.X.X.X.O.+.",
"( ( ( ( ( ( Q ( ( ' W 2 < 1 < 1 < < 1 1 < 5 m m m M M M M m m M M M M M M M M M M M n < : : : : : : : : ; 2 o.o.O.O.O.X.O.O.X.O.",
"G G G G G G G G Z G k < : : : : : : : > ; 1 l l l l l l l l l l c c x x c c c c c c z : : : : : : : : : ; 7 o.o.+.X.X.+.X.+.+.+.",
"G G G G G G G G G F k , : : : : : : : : : 1 l l l l l l l l l l c c c c c c c c c c l , : : : : : : : < ; 7 o.o.X.+.+.X.+.O.O.O.",
"G G G G V G G G G G k , : : : : ; < ; < ; 1 l l l l x l l l l l c c c c c c c c c c l > : : : : : : : > ; 7 X.O.+.X.O.O.O.O.O.+.",
"G G G G G G G G G F k , : : : : < ; < ; : 1 l l l l l l l l l l c c c c c c c c c b z < : : : : : : : > ; 7 O.O.O.O.O.O.+.O.O.O.",
"G G G G G G G G G F k , : : : : : > : : ; 1 l l l l l l l l l l c c c c c c c c c c l < : : : : : > : > ; 7 O.+.+.O.O.+.O.O.O.+.",
"G G G G V G G G G G k , : : : : : : : : : 1 l l l l l l l l l l c c c c c c c c c c l > : : : : : : > > ; 7 X.O.O.O.O.O.O.O.O.+.",
"G G G G G G G G G G k , : : : : : : : : : < l l l l l l l l l l c c c c c c c c c b l > : : : : : : : > ; 7 X.O.O.O.O.O.+.O.+.O.",
"G G G G G G G G G G k 1 : : : : : > : > : < l l l l l l l l l l c c c c c c c c c c l < > : : : : : : > ; 6 X.O.+.O.+.O.O.O.O.+.",
"G G G G G G G G G G k , ; : : : ; : : : ; < l l l l l l l l l l c c x c x c x c c c z > ; : ; : ; : : : ; 6 O.O.O.O.O.O.O.O.O.+.",
"G G G G G K F G K K V 2 1 1 1 1 1 1 1 1 < 5 x x x x x x x x x c c b b b b b b b b b v 1 > 7 1 > 7 1 1 1 > q O.+.O.+.+.+.+.O.+.+."
};
