/* XPM */
static char *a27a6fae287f4744a35c14b847d1d258zshJBZKtqembEf2L[] = {
/* columns rows colors chars-per-pixel */
"64 64 139 2 ",
"   c #4A2D19",
".  c #4D331B",
"X  c #4B391B",
"o  c #52331D",
"O  c #513C1E",
"+  c #4C3220",
"@  c #4C3C22",
"#  c #523622",
"$  c #5F3C23",
"%  c #623E24",
"&  c #3B7B11",
"*  c #4B431C",
"=  c #426D16",
"-  c #407615",
";  c #427817",
":  c #46721B",
">  c #467C1C",
",  c #487E1E",
"<  c #5E412C",
"1  c #654025",
"2  c #684226",
"3  c #62422B",
"4  c #6C4529",
"5  c #6F492A",
"6  c #764C2D",
"7  c #7A4F2E",
"8  c #7D512F",
"9  c #744E31",
"0  c #775235",
"q  c #7B5233",
"w  c #4F7B24",
"e  c #517C25",
"r  c #4F4A45",
"t  c #524B46",
"y  c #514E4B",
"u  c #56514D",
"i  c #515152",
"p  c #655D57",
"a  c #655D58",
"s  c #685F59",
"d  c #66625F",
"f  c #666667",
"g  c #686460",
"h  c #855832",
"j  c #8C5B35",
"k  c #905E37",
"l  c #956239",
"z  c #3F8015",
"x  c #418117",
"c  c #46861C",
"v  c #47881E",
"b  c #48881F",
"n  c #4D8323",
"m  c #4C8C22",
"M  c #518626",
"N  c #518D26",
"B  c #5E862D",
"V  c #538929",
"C  c #4F9025",
"Z  c #519127",
"A  c #54952B",
"S  c #5B932E",
"D  c #59992F",
"F  c #5B9030",
"G  c #5C9131",
"H  c #5F9130",
"J  c #5A9A30",
"K  c #5B9B31",
"L  c #5C9C32",
"P  c #5C9D32",
"I  c #5D9C33",
"U  c #5D9D33",
"Y  c #5D9E33",
"T  c #5F9D34",
"R  c #5F9E34",
"E  c #60862F",
"W  c #638233",
"Q  c #648E35",
"!  c #668D36",
"~  c #668E36",
"^  c #688739",
"/  c #6B8B3C",
"(  c #609130",
")  c #619131",
"_  c #609230",
"`  c #629232",
"'  c #639232",
"]  c #639332",
"[  c #629534",
"{  c #649535",
"}  c #649536",
"|  c #659537",
" . c #669537",
".. c #659636",
"X. c #669937",
"o. c #619D36",
"O. c #679638",
"+. c #679738",
"@. c #69923B",
"#. c #6C923D",
"$. c #6D933D",
"%. c #6C933D",
"&. c #6B943C",
"*. c #6E973F",
"=. c #679A39",
"-. c #689938",
";. c #699A39",
":. c #689A39",
">. c #69983A",
",. c #68993A",
"<. c #699B3A",
"1. c #699A3B",
"2. c #699B3B",
"3. c #6A9A3A",
"4. c #6A9B3A",
"5. c #6A9B3B",
"6. c #6B9C3B",
"7. c #6B9C3D",
"8. c #6B9C3C",
"9. c #6C9C3C",
"0. c #6C9D3D",
"q. c #6D9C3E",
"w. c #6C9D3E",
"e. c #6E9D3F",
"r. c #6F9D3F",
"t. c #6E9F3F",
"y. c #6E9E3F",
"u. c #6FA03F",
"i. c #709740",
"p. c #709840",
"a. c #70A241",
"s. c #71A042",
"d. c #71A142",
"f. c #72A143",
"g. c #72A243",
"h. c #74A344",
"j. c #75A545",
"k. c #75A645",
"l. c #76A746",
/* pixels */
"A A A A A A J A A A A Z m m m m b m b m Z Z Z Z c c c c m C C C J P L J D D A A m m m m b m Z b Z Z b m v c c c & & & & b N C C ",
"A A A A J A A A A A A A m m m c b m m b Z Z Z Z c c x c m C C C J P L J A A D A Z m C m m b b b b b Z b v c c c & & & & m m Z m ",
"A A A A J A A A A Z A Z b m m c b b b m Z Z Z N c c c c m C C Z J P J J D A A A N m m m m C b C m m b m c c c c & & & & m C Z m ",
"A A A A A A A A S A A S m n m m m m m m M M M M c c c c m C m N D J J J D D D D Z N Z Z N b m b b b Z b b v c c & & & & m C N Z ",
"A A A A C C C Z [  . . .G S H H ( ( ( B * X X * b m m b b b b b b c c m >.0.7.7.:.<.-.X.A Z A Z b b b v m N m m b b b b m m Z m ",
"A A A A C m C Z  . . . .` ` Q ( ' ' ' E X       , m m b b b b c c c c n ;.*.s.0.*.0.6.<.S A A A b v c c b Z C C m m m m m Z C N ",
"A A A A C C C C [  . . .( H ( ( ` ' G B X     X w b m m c b c v c c c b 1.0.0.0.0.6.0.<.A A Z Z b c c b Z Z m C m m m b N m C m ",
"D D D A M n n M  .;.>. .H H H H ( ( G M X       b M m m , > > , c c c m ;.s.0.0.6.0.0.;.F D J Z c > > , b C m m m b b n b n M b ",
"-.>.;.Q * X X * *.j.h.u.N m n m m m m n X     X M Z Z M X X X X M A A A U I I o.s.1.1.s.s.7.s.@.*   X * ; x x x c c c , *   X X ",
";.;.;.! X     + *.k.k.a.m b b c m m m n X     X M A Z n X     X M A A A U U I I 1.s.7.p.s.s.a.%.X       - x ; x c c c > X       ",
";.;.*. .@     X p.l.k.a.m m b b m m m n       X M C C M X     X C A A A J U U U 1.0.7.s.f.f.g.&.X     X - z & x c c c > X       ",
"! Q ! W @   + @ / p.p.&.w , , , m C m n X     X w C m z       X M A Z A S F F A 1.1.1.;.&.%.&.^ X     X - - - & ; > > : X       ",
"O X X @ t y y r @ X X X X X X X V Z Z n X       @ X X X       X , b c , * X X X M A Z M < X @ X 1 $ $ O X X X     X X X O $ $ $ ",
"      + y i i y +             X n A Z V X                     X > c c & X     X n m Z n X       O 1 1 1                 $ % % % ",
"      + y i i y +             X V Z C M X                       > c c > X     X M Z C n X     . $ % % $                 $ % % % ",
"  . . + t y y t # . . . o . . X w M V w X   .           .     X : > > :       X w n n w X     + $ % % % . . .           $ % % % ",
"6 6 6 6 % % % 3 7 % h % j k k h # o . O 5 6 5 5 % % $ $ $ $ $ $ X X X             + + + t y y t % % % % 6 6 6 4         % % % % ",
"7 7 7 6 % % % % % h h h k k k k o     o 6 7 7 7 1 % % % % % % $                       + y i i y % % % 1 7 7 7 6 .     . % % % % ",
"7 7 7 6 % % % 3 7 7 6 6 k l l k o       6 7 7 6 % % % % % % % $                         y i i u 3 % % 1 6 7 6 6 .       % % % % ",
"6 6 7 6 % % % % 6 7 7 h k l l k o     o 6 7 7 6 % $ % % $ $ % $                       + r y y t % % % 1 6 6 6 6 o     . % 4 % % ",
"% % % % #     # 7 h 6 7 6 h h 7 % % % % 6 7 7 6 o                       $ $ $ $ % $ $ $ o   + + $ % % % 1 1 1 1 % % % % j k k k ",
"% % % %       . % h 7 7 6 6 6 9 % % % % 6 7 7 6                         % % % % % % % $         $ % % % % % % % % % % 4 k l l l ",
"% % % %       . h 6 6 h h 6 7 9 % % % % 6 7 7 6 o                       % % % % % % % $         $ % % % % % % % % % % % k l l l ",
"% 5 % % o     o % 6 6 6 6 6 7 7 3 4 3 3 6 6 7 5 o .     o o o o . o . . % % % % 4 % 2 % o o o o % % % % 1 % 1 1 % % % 4 k k l k ",
"k k k k % % % % % % % % % % 5 4 s g d a 4 % 2 % % % $ % j j j k j j j j 1 % % 2 j k k k j j k j 6 % % % 6 % h % % % % 2 h h 7 h ",
"l l l k % % % % % % % % % % % % g f f d 3 % % % % % % 3 k l l l l l l k 2 % % 1 l l l l l l l k % % % % h h 6 h % % % % 6 7 6 6 ",
"l k l k 5 % % % % % % % % % % % d f f d 3 % % % % % % 4 k l l l l l l k 2 % % 2 j l l l l l l k % % % % % h h % % % % % 6 7 6 7 ",
"k k k k % % % % 6 % % 6 % 5 % 5 s g g s 4 % % % % % % 2 j k k k l l k k % % % 1 j l l k l l l j 6 % % % % 7 h h 4 % % 4 6 7 7 7 ",
"4 % 5 % % % % % j k k k k k k k q 0 q q 9 6 6 6 % % % % 4 2 2 4 6 h 7 6 o     o 6 h 7 8 8 7 h 7 % % % % % % 6 % h % 6 6 h h 6 6 ",
"% % % % % % % 5 k l l l l l l k 7 7 7 7 7 7 7 6 % % % % % % % % 6 7 7 6 o     o 6 8 7 7 7 7 6 h % % % % % % % % % h 6 6 6 6 h 6 ",
"% % % % % % % % k l k l l l l l h 7 7 7 7 7 7 6 2 % % % % % % % 6 7 7 6         % h 7 7 7 7 7 % % % % % % % % % h h h h 6 h 6 6 ",
"% 4 % % % % % 5 j k k k l l k k 9 6 6 7 7 7 7 6 % % % % % % $ % 6 6 6 6 # . . o 6 7 7 7 7 6 h h % % % % % % % % % % % 6 6 6 6 6 ",
"6 6 6 6 % % % % % % % 6 7 8 8 8 6 % % % 6 7 8 7 % % % $ o     o % % % 2 6 6 6 6 7 7 7 7 % % % 2 % % % % % % % % o o o o % 1 1 % ",
"7 7 8 6 % % % % % % % % 6 8 6 6 % % % % 6 7 7 h % % % $         % % % % 6 7 7 7 7 7 7 6 % % % % % % % % % % % %         $ % % % ",
"8 6 8 6 % % % % % % % % 6 8 8 6 % % % % 6 8 h % % % % $         % % % % 6 7 7 7 7 7 7 7 % % % % % % % % % % % %         $ % % % ",
"6 6 8 j % % % % % % % % % 6 8 h % % % % 8 % 6 % % % $ $ o   o o % % % % 6 6 6 6 6 7 6 7 2 % % % 2 2 2 2 2 2 % % o     o % 1 1 1 ",
"% % % % % h 8 q $   o o % % % % % % % % o o   o o     o % % % % % % % % % % 2 % % % % 4 % % % 4 k k k k k k k k % % % % 6 6 6 7 ",
"% % % % 6 8 7 % o       % % % % % % % %                 % % % % % % % % % % % % % % % % % % % % k l l l l l l k 1 % % 2 6 7 7 7 ",
"% % % % h 8 8 h         % % % % % % % %                 % % % % % % % % % % % % % % % % % % % % k l l l l l l k 2 % % % 6 7 7 7 ",
"% % % % % 7 8 % o     o % % % % 6 % % % o       o o o o % % % % % % % % 2 2 2 2 4 % 4 % % % % % k k k k l l l k 5 3 3 1 6 7 6 6 ",
"% % % % j 8 8 6 % % % % l l k k l l k j % % % % h k j j 7 % 7 % o     o j k k k k k k j o     o 6 h h 7 7 h 7 q s s g a 3 % % 3 ",
"% % % % 8 8 7 6 % % % % l l l l l l l k % % % % k l l l h h 8 6 .     o k l k l l l k k o     o 5 9 6 7 7 7 7 0 g f f d 3 % % % ",
"% % % % 6 8 8 % % % % 6 l l l l l l l k % % % % k l l l 8 8 7 8 .     o k l l k l l l k o     o 6 7 6 7 7 7 7 0 g f f d 3 % % % ",
"% 6 % % 6 6 8 8 % % % % k l l k l l l l 6 6 % % j l l l 8 6 7 % # +   # k k k k k k k k o     o 4 6 6 6 7 7 7 q s d g a % $ % % ",
"6 6 6 6 % % % % % % % % 8 8 8 8 8 8 6 h l l k j 6 % % 6 8 h h q t y y t q 7 h 7 h h h 6 % $ % o o o . o 6 7 7 6 3 3 3 % .     o ",
"q 6 8 6 % % % % % % % 6 6 6 8 6 8 6 8 8 l l l k % % % % 7 % h % u i u u q 7 7 7 7 6 7 6 % % % %       . 6 7 7 6 % % % %         ",
"8 7 8 6 % % % % % % % % 6 8 8 8 6 8 8 8 k l l l % % % % % h 7 7 u i i u 9 9 7 7 7 7 7 7 % % % %         6 7 7 6 3 % % %         ",
"6 6 7 8 % % % % % % % % % 6 6 6 8 6 6 8 k l k k 7 % % % 6 q 7 h t y u u 9 6 6 6 6 6 6 6 % % % % o     o 5 7 6 6 4 2 2 % # o o . ",
"% % % % o     o % 8 6 % % % % 6 h h 6 7 7 h 7 h j k k j 6 % % % % % % % % 2 % % % % % % % % % % % % % $ % % % 5 j k k k k k k k ",
"% % % %       o 6 8 8 7 % % % % % 6 7 7 6 6 6 h k l l k % % % % % % % % % % % % % % % % % % % % % % % % % % % 5 k l l l l l l k ",
"% % % %         % 8 8 h % % % % 6 h 6 h 7 7 7 7 k l l k % % % % % % % % % % % % % % % % % % % % % % % % % % % % k l l l l l l l ",
"% % % % o   o $ 8 8 6 % % % % % 6 6 6 p 6 6 7 7 k l l j % % % % % % % % % % $ % % 6 % % % $ $ $ % % % % % 5 % 6 k k k l l l k l ",
"% % % % 8 8 % 8 7 % % % % % % % % 3 t % % % % % 7 8 8 8 6 6 6 6 % % % % o     o j l l j o   o o % % % 4 j k k k 7 h h 6 h h 6 h ",
"% % % % 7 8 8 6 % % % % % % % % % % % % % % % % 7 7 7 7 7 7 7 7 % % % %       o j l l j o       $ % % % k l l k 7 h % h h 6 h % ",
"% % % % 6 8 7 6 % % % % % % % % 3 t % % % % % % 6 7 7 7 7 7 7 h % % % %       o j l l j o     o $ % % % k l l k h 6 % h h h h % ",
"% % % % 6 6 6 6 % % % % % % % 7 3 3 3 % % % % % 6 6 6 7 6 6 6 % % % % % o o o $ j k j j o   o o $ % % % j k k k 8 6 h h % % h h ",
"6 6 h % % % % % $ o   o j k k j 6 % % % o     o % % % % o   o # k l k k k k k j 6 % % 6 7 6 6 % 6 % % % % 6 % % 6 7 7 7 7 7 7 7 ",
"8 8 8 6 % % % %       o k l l k % % % %         % % % %       o k l l l l l k k % % % % 7 8 8 6 % % % % % % % % 6 7 7 7 7 7 7 7 ",
"6 8 8 6 % % % %         j l l k % % % $         % % % %       o k l l l l l l k % % % % 6 7 7 6 % % % % % % % % 7 7 7 7 7 7 7 7 ",
"6 8 h h % % % % # o o $ j k l k % % % % o     o % % % % o   + $ k k k l k l k k 6 % % % 6 6 6 6 % % % % % % % % 6 6 6 6 6 6 6 6 ",
"8 6 8 6 % % % 6 h k j j h 8 8 8 7 6 6 6 % % % % f d d a % % % % 6 h 6 h h h h h % % % % % % % % h 6 6 6 6 6 6 6 % % % % o   o o ",
"6 8 8 6 % % % % k l l l 7 6 7 7 7 7 7 6 % % % % f f f d % % % % % 7 7 7 h % h % 6 % % % % % % % h 7 7 7 7 7 7 6 % % % $         ",
"7 7 8 % % % % % k l l l 8 7 7 7 7 7 h 7 % % % % d f f d % % % % h 7 7 7 7 6 6 6 % % % % % % % % 7 7 7 7 7 7 h 7 % % $ $         ",
"7 7 q h % % % % k l l l 8 7 7 7 7 6 6 p % % % % d f f d % % % % 7 7 7 7 7 6 h 6 % % % % % % % % 6 7 7 7 7 7 6 h % % $ $         "
};
